<svg xmlns="http://www.w3.org/2000/svg" width="625.74" height="625.74" viewBox="0 0 625.74 625.74">
  <g id="b706ef36-286a-4e66-b5bb-8118420185a9" data-name="Calque 2">
    <g id="e61c649a-a549-437c-ae5f-1b649550de13" data-name="Calque 1">
      <g>
        <polygon points="577.12 380.95 571.12 394.78 555.21 409.39 535.38 395.82 528.6 375.21 547.91 360.61 564.08 358.26 575.04 369.48 577.12 380.95" style="fill: #333;stroke: #333;stroke-miterlimit: 10"/>
        <path d="M546.34,348.08,504.6,325.65,467,301.13l-15.66-11-15.65-21.91L425.3,234.34l-14.09-20.08,14.09,6.26-37.57-31.31L355.2,173.29,351,171.21l-19.17-15.06-1.18-9,3.72-18.39,15.46-21.13L368.17,100H353l-21.57,17.21-46.95,42.27H257L214,168.08l-26.61-29.74-43-21.13-21.13,7.05-11.74,31.3-7,58.7,5.06,18.27-17.06,6-26.61,25L33,315.21l-22.74,9.05q.49,13.42,2.14,26.55L33,346.52,74.69,310l53.22-6.09L143,313.13l-9.92,15.65-5.21,32.87,17.74,17.22L167,341.82l42.78-26.61L251,300.08,295.91,309l52.69-15.13L358,282.66l4.16-4.94,5.76-6.85,17.21-11,7.31-24-19.83-13,16.7-6.79,17.74,9.4,14.08,22.43,6.79,28.17-5.74,10.44L417,303.91v43.65l7.3,56.87,20.87,20.87,21.4-8.35L490,383.82l21.92-19,16.69,10.43,19.31-14.6,16.17-2.35ZM220.25,259.91,192.6,277.72l-20.35-17.81H155.56l6,23.22-20.09-23.22L131,226l-3.66-34.44,7.31-34.43,15.65-16.7,30.78,11,17.74,23.48,5.74,22.43,30.78,7.31,6.27,28.17Z" style="fill: #dd9e52"/>
        <polygon points="241.65 232.78 220.25 259.91 192.6 277.72 172.25 259.91 155.56 259.91 161.56 283.13 141.47 259.91 131.04 226 127.38 191.56 134.69 157.13 150.34 140.43 181.12 151.39 198.86 174.87 204.6 197.3 235.38 204.61 241.65 232.78" style="fill: #d1b797"/>
        <polygon points="109.97 232.4 121.88 264.2 119.87 261.91 161.75 282.67 161.37 283.59 117.17 268.35 115.47 267.76 115.16 266.06 109.01 232.66 109.97 232.4" style="fill: #d19350"/>
        <polyline points="388.78 435.21 417.47 436.26 459.21 444.61 489.47 447.74 525.99 438.87" style="fill: none;stroke: #333;stroke-miterlimit: 10"/>
        <path d="M555.21,409.39,542.1,422.62,526,438.87l-17.74,17.21-23.47,10.44-54.26-3.13L418,469.13l-42.26,4.17-7.3,10.44-20.87,3.65-18.78,9.39,2.6,21.13-15.65,41.48-59.87,30.52H190.3C95.13,547.74,25.74,458,12.35,350.81L33,346.52,74.69,310l53.22-6.09L143,313.13l-9.92,15.65-5.21,32.87,17.74,17.22L167,341.82l42.78-26.61L251,300.08,295.91,309l52.69-15.13L358,282.66v7l8.87,9.91L381,303.91l8.87-4.35,4.7-20.35-9.4-19.3,7.31-24-19.83-13,16.7-6.79,17.74,9.4,14.08,22.43,6.79,28.17-5.74,10.44L417,303.91v43.65l7.3,56.87,20.87,20.87,21.4-8.35L490,383.82l21.92-19,16.69,10.43,6.78,20.61Z" style="fill: #d1b797"/>
        <polygon points="389.82 299.56 380.95 303.91 366.86 299.56 357.99 289.65 357.99 282.66 362.15 277.72 363.47 281.91 368.36 289 376.25 296.43 383.04 299.56 389.82 299.56" style="fill: #4f4f4f"/>
        <polygon points="394.52 279.21 389.82 299.56 383.04 299.56 376.25 296.43 368.36 289 363.47 281.91 362.15 277.72 367.91 270.87 385.12 259.91 394.52 279.21" style="fill: #333;stroke: #333;stroke-miterlimit: 10"/>
        <polygon points="368.17 100 365.82 132.08 355.2 173.29 350.95 171.21 331.78 156.15 330.6 147.15 334.32 128.76 349.78 107.63 368.17 100" style="fill: #d1b797"/>
        <line x1="355.2" y1="173.3" x2="355.2" y2="173.29" style="fill: none;stroke: #333;stroke-miterlimit: 10"/>
        <polygon points="451.38 290.17 435.73 268.26 425.3 234.34 411.21 214.26 425.3 220.52 449.95 252.61 451.38 290.17" style="fill: #d1b797"/>
        <polygon points="392.74 236.3 347.63 278.03 346.71 278.88 345.61 279.01 305.94 283.62 305.7 282.64 343.24 268.99 341.23 269.96 392.12 235.52 392.74 236.3" style="fill: #d19350"/>
        <path d="M542.18,423.11c-9.72,2.51-19.49,4.64-29.26,6.8s-19.58,4.1-29.39,6-19.65,3.68-29.48,5.4l-14.77,2.53-14.79,2.41.4-.08-8.58,2.07-8.61,2c-5.75,1.26-11.51,2.47-17.3,3.56s-11.6,2.12-17.44,3-11.7,1.7-17.64,2.19l-.24-1c5.48-2.34,11.06-4.3,16.63-6.29s11.19-3.74,16.82-5.47,11.3-3.36,17-4.92L414,439l8.56-2.17.19-.05.21,0,14.8-2.3,14.82-2.19q14.83-2.13,29.71-4c9.91-1.27,19.85-2.36,29.79-3.46s19.91-2,29.92-2.63Z" style="fill: #af9880"/>
        <polygon points="513.38 395.88 477.21 415.43 476.69 414.57 510.96 391.85 513.38 395.88" style="fill: #919191"/>
        <polygon points="518.78 410.71 494.8 423.05 494.31 422.18 517.29 408.07 518.78 410.71" style="fill: #919191"/>
        <line x1="536.82" y1="415" x2="506.3" y2="422.62" style="fill: none;stroke: #919191;stroke-miterlimit: 10;stroke-width: 2.84658947906908px"/>
        <path d="M615.74,312.87c0,167.27-135.6,302.87-302.87,302.87A301.69,301.69,0,0,1,190.3,589.91C95.13,547.74,25.74,458,12.35,350.81q-1.63-13.11-2.14-26.55Q10,318.59,10,312.87C10,145.6,145.6,10,312.87,10S615.74,145.6,615.74,312.87Z" style="fill: none;stroke: #e8e8e8;stroke-miterlimit: 10;stroke-width: 20px"/>
      </g>
      <path d="M393,348.6a14.62,14.62,0,1,1-29.23,0c0-8.07,14.62-37.56,14.62-37.56S393,340.53,393,348.6Z" style="fill: #a9d2db"/>
      <path d="M378.32,356.15a6.88,6.88,0,0,1-4.17.37,7.86,7.86,0,0,1-3.87-2,7.15,7.15,0,0,1-2.19-3.92,6.62,6.62,0,0,1,.49-4.18h1c.39.58.59,1.13.88,1.62a15,15,0,0,0,.85,1.35,9.49,9.49,0,0,0,1.8,2.1,20.78,20.78,0,0,0,2.31,1.76c.87.58,1.86,1.18,2.93,1.93Z" style="fill: #7ccbd8"/>
    </g>
  </g>
</svg>
